<?xml version="1.0" encoding="UTF-8"?>
<svg xmlns="http://www.w3.org/2000/svg" xmlns:xlink="http://www.w3.org/1999/xlink" width="8pt" height="9pt" viewBox="0 0 8 9" version="1.1">
<g id="surface1">
<path style=" stroke:none;fill-rule:nonzero;fill-opacity:1;" d="M 7.785156 2.8125 L 0.214844 2.8125 C 0.0976562 2.8125 0 2.71875 0 2.601562 L 0 1.96875 C 0 1.503906 0.382812 1.125 0.855469 1.125 L 1.714844 1.125 L 1.714844 0.210938 C 1.714844 0.09375 1.8125 0 1.929688 0 L 2.644531 0 C 2.761719 0 2.855469 0.09375 2.855469 0.210938 L 2.855469 1.125 L 5.144531 1.125 L 5.144531 0.210938 C 5.144531 0.09375 5.238281 0 5.355469 0 L 6.070312 0 C 6.1875 0 6.285156 0.09375 6.285156 0.210938 L 6.285156 1.125 L 7.144531 1.125 C 7.617188 1.125 8 1.503906 8 1.96875 L 8 2.601562 C 8 2.71875 7.902344 2.8125 7.785156 2.8125 Z M 0.214844 3.375 L 7.785156 3.375 C 7.902344 3.375 8 3.46875 8 3.585938 L 8 8.15625 C 8 8.621094 7.617188 9 7.144531 9 L 0.855469 9 C 0.382812 9 0 8.621094 0 8.15625 L 0 3.585938 C 0 3.46875 0.0976562 3.375 0.214844 3.375 Z M 4.808594 6.1875 L 5.667969 5.34375 C 5.75 5.257812 5.75 5.125 5.667969 5.042969 L 5.164062 4.546875 C 5.078125 4.464844 4.941406 4.464844 4.859375 4.546875 L 4 5.390625 L 3.140625 4.546875 C 3.058594 4.464844 2.921875 4.464844 2.835938 4.546875 L 2.332031 5.042969 C 2.25 5.125 2.25 5.257812 2.332031 5.34375 L 3.191406 6.1875 L 2.332031 7.03125 C 2.25 7.117188 2.25 7.25 2.332031 7.332031 L 2.835938 7.828125 C 2.921875 7.910156 3.058594 7.910156 3.140625 7.828125 L 4 6.984375 L 4.859375 7.828125 C 4.941406 7.910156 5.078125 7.910156 5.164062 7.828125 L 5.667969 7.332031 C 5.75 7.25 5.75 7.117188 5.667969 7.03125 Z M 4.808594 6.1875 "/>
</g>
</svg>
