<svg width="15.28" height="15.281" xmlns="http://www.w3.org/2000/svg">

 <g>
  <title>background</title>
  <rect fill="none" id="canvas_background" height="402" width="582" y="-1" x="-1"/>
 </g>
 <g>
  <title>Layer 1</title>
  <path d="m2.980029,6.076a0.617,0.617 0 0 1 0.75,0.485a2.583,2.583 0 0 0 0.78,1.489a3.036,3.036 0 0 0 1.49,0.777a0.636,0.636 0 0 1 0.49,0.743a0.649,0.649 0 0 1 -0.72,0.515a4.21,4.21 0 0 1 -2.14,-1.13a4.164,4.164 0 0 1 -1.13,-2.136a0.6,0.6 0 0 1 0.48,-0.743zm3.28,-6.076a6.267,6.267 0 0 1 6.28,6.257a6.136,6.136 0 0 1 -0.57,2.6l2.34,2.036c1.7,1.746 0.74,3.266 0.29,3.717c-0.42,0.454 -1.99,1.414 -3.73,-0.292l-2.06,-2.35a6.261,6.261 0 1 1 -2.55,-11.968zm5.55,13.517a1.352,1.352 0 0 0 1.88,0.226a1.313,1.313 0 0 0 -0.23,-1.874l-2.16,-1.88a6.236,6.236 0 0 1 -1.37,1.34l1.88,2.188zm-5.55,-2.312a4.948,4.948 0 1 0 -4.97,-4.948a4.963,4.963 0 0 0 4.97,4.943l0,0.005z" fill-rule="evenodd" id="icon"/>
 </g>
</svg>