<?xml version="1.0" encoding="UTF-8"?>
<svg xmlns="http://www.w3.org/2000/svg" xmlns:xlink="http://www.w3.org/1999/xlink" width="8pt" height="8pt" viewBox="0 0 8 8" version="1.1">
<g id="surface1">
<path style=" stroke:none;fill-rule:nonzero;fill-opacity:1;" d="M 4 4.5 C 5.242188 4.5 6.25 3.492188 6.25 2.25 C 6.25 1.007812 5.242188 0 4 0 C 2.757812 0 1.75 1.007812 1.75 2.25 C 1.75 3.492188 2.757812 4.5 4 4.5 Z M 6 5 L 5.140625 5 C 4.792969 5.160156 4.40625 5.25 4 5.25 C 3.59375 5.25 3.210938 5.160156 2.859375 5 L 2 5 C 0.894531 5 0 5.894531 0 7 L 0 7.25 C 0 7.664062 0.335938 8 0.75 8 L 7.25 8 C 7.664062 8 8 7.664062 8 7.25 L 8 7 C 8 5.894531 7.105469 5 6 5 Z M 6 5 "/>
</g>
</svg>
