<svg width="19" height="19" xmlns="http://www.w3.org/2000/svg">
 <g>
  <title>background</title>
  <rect x="-1" y="-1" width="21" height="21" id="canvas_background" fill="none"/>
 </g>

 <g>
  <title>Layer 1</title>
  <g id="surface1">
   <path stroke="#a3bbc8" d="m9.5,17.05078c-0.47266,0.00391 -0.92969,-0.18359 -1.26562,-0.51953l-6.11329,-6.11719c-0.97656,-0.98437 -1.51562,-2.32422 -1.49609,-3.71093c0.00781,-1.26954 0.52344,-2.48438 1.42969,-3.37891c0.90625,-0.89063 2.1289,-1.38281 3.40234,-1.37109c1.29297,-0.01172 2.53906,0.5 3.44922,1.41796l0.59375,0.59375l0.48828,-0.48437c1.73828,-1.78516 4.52735,-2.01172 6.53125,-0.53125c1.11328,0.85937 1.80469,2.15625 1.89844,3.5625c0.08984,1.40625 -0.42578,2.78125 -1.41797,3.77734l-6.23437,6.24219c-0.33594,0.33594 -0.79297,0.52344 -1.26563,0.51953zm-4.06641,-13.91406c-0.94531,-0.00391 -1.85156,0.36328 -2.53125,1.01953c-0.69921,0.67188 -1.09375,1.60156 -1.08984,2.57031c-0.01172,1.06641 0.40625,2.09375 1.15625,2.85157l6.11719,6.11328c0.10937,0.11328 0.26172,0.17578 0.42187,0.17578c0.15625,0 0.3086,-0.0625 0.41797,-0.17578l6.24219,-6.2461c0.74219,-0.7539 1.125,-1.79297 1.05078,-2.84765c-0.0625,-1.07032 -0.58984,-2.05469 -1.44141,-2.70313c-1.52734,-1.125 -3.65625,-0.94531 -4.97265,0.42188l-0.88281,0.91015c-0.11329,0.10938 -0.26172,0.17578 -0.42188,0.17578c-0.16016,0 -0.30859,-0.0664 -0.42187,-0.17578l-1.00782,-1.01172c-0.69531,-0.6875 -1.63672,-1.07812 -2.61328,-1.07812l-0.02344,0zm0,0" fill="#a3bbc8" fill-rule="nonzero" id="svg_1"/>
  </g>
 </g>
</svg>