
<svg xmlns="http://www.w3.org/2000/svg" xmlns:xlink="http://www.w3.org/1999/xlink" width="19pt" height="19pt" viewBox="0 0 19 19" version="1.1">
<g id="surface1">
<path style=" stroke:none;fill-rule:nonzero;fill:rgb(14.901961%,25.098039%,30.588235%);fill-opacity:1;" d="M 9.5 17.050781 C 9.027344 17.054688 8.570312 16.867188 8.234375 16.53125 L 2.121094 10.414062 C 1.144531 9.429688 0.605469 8.089844 0.625 6.703125 C 0.632812 5.433594 1.148438 4.21875 2.054688 3.324219 C 2.960938 2.433594 4.183594 1.941406 5.457031 1.953125 C 6.75 1.941406 7.996094 2.453125 8.90625 3.371094 L 9.5 3.964844 L 9.988281 3.480469 C 11.726562 1.695312 14.515625 1.46875 16.519531 2.949219 C 17.632812 3.808594 18.324219 5.105469 18.417969 6.511719 C 18.507812 7.917969 17.992188 9.292969 17 10.289062 L 10.765625 16.53125 C 10.429688 16.867188 9.972656 17.054688 9.5 17.050781 Z M 5.433594 3.136719 C 4.488281 3.132812 3.582031 3.5 2.902344 4.15625 C 2.203125 4.828125 1.808594 5.757812 1.8125 6.726562 C 1.800781 7.792969 2.21875 8.820312 2.96875 9.578125 L 9.085938 15.691406 C 9.195312 15.804688 9.347656 15.867188 9.507812 15.867188 C 9.664062 15.867188 9.816406 15.804688 9.925781 15.691406 L 16.167969 9.445312 C 16.910156 8.691406 17.292969 7.652344 17.21875 6.597656 C 17.15625 5.527344 16.628906 4.542969 15.777344 3.894531 C 14.25 2.769531 12.121094 2.949219 10.804688 4.316406 L 9.921875 5.226562 C 9.808594 5.335938 9.660156 5.402344 9.5 5.402344 C 9.339844 5.402344 9.191406 5.335938 9.078125 5.226562 L 8.070312 4.214844 C 7.375 3.527344 6.433594 3.136719 5.457031 3.136719 Z M 5.433594 3.136719 "/>
</g>
</svg>
