<?xml version="1.0" encoding="utf-8"?><svg viewBox="0 0 98 98" xmlns="http://www.w3.org/2000/svg" xmlns:xlink="http://www.w3.org/1999/xlink"><style>:root>svg{display:none}:root>svg:target{display:block}</style><svg viewBox="0 0 32 32" id="burger-menu" xmlns="http://www.w3.org/2000/svg"><path d="M26 16a2 2 0 01-2 2H8a2 2 0 010-4h16a2 2 0 012 2zM26 8a2 2 0 01-2 2H8a2 2 0 010-4h16a2 2 0 012 2zM26 24a2 2 0 01-2 2H8a2 2 0 010-4h16a2 2 0 012 2z"/></svg><svg viewBox="0 0 18.94 16.969" id="icon-basket" xmlns="http://www.w3.org/2000/svg"><defs><style>.bcls-1{fill-rule:evenodd}</style></defs><path class="bcls-1" d="M5.53 16.978a2.074 2.074 0 110-4.147 2.056 2.056 0 011.46.6 2.03 2.03 0 01.61 1.466 2.071 2.071 0 01-2.07 2.081zm0-2.963a.889.889 0 10.34 1.71.9.9 0 00.55-.824.92.92 0 00-.26-.629.9.9 0 00-.63-.257zm8.39 2.963a2.045 2.045 0 01-1.46-.607 2.068 2.068 0 011.46-3.54 1.953 1.953 0 011.47.6 2.085 2.085 0 01-.67 3.383 2.093 2.093 0 01-.8.164zm0-2.963a.978.978 0 00-.82.548.887.887 0 001.16 1.161.891.891 0 00.29-1.452.9.9 0 00-.63-.257zm-11.27.164a.562.562 0 01-.25-.056.59.59 0 01-.29-.787 3.686 3.686 0 013.05-2.151L4.11 5.794a.591.591 0 111.16-.228l1.09 5.578h9.43l1.8-6.771H4.29A4.346 4.346 0 01.01.68.587.587 0 01.5.007a.6.6 0 01.68.5 3.159 3.159 0 003.11 2.682h14.07a.582.582 0 01.47.232.594.594 0 01.11.513l-2.13 7.956a.59.59 0 01-.57.44H5.88a.03.03 0 00-.02 0 2.66 2.66 0 00-2.68 1.51.586.586 0 01-.53.338z"/></svg><svg viewBox="0 0 22 20" id="icon-basket-white" xmlns="http://www.w3.org/2000/svg"><defs><style>.ccls-1{fill-rule:evenodd}</style></defs><path id="cForma_1" data-name="Forma 1" class="ccls-1" d="M800.814 1564.63h2.333l3.323 12.04a.812.812 0 00.787.59h10.214a.821.821 0 00.746-.48l3.717-8.56a.836.836 0 00-.068-.78.813.813 0 00-.678-.37H809.9a.82.82 0 000 1.64h10.04l-3.011 6.92h-9.062l-3.323-12.03a.808.808 0 00-.787-.6h-2.943a.815.815 0 000 1.63zm5.67 18.37a1.85 1.85 0 10-1.845-1.85 1.85 1.85 0 001.845 1.85zm11.53 0h.135a1.907 1.907 0 10-.135 0z" transform="translate(-800 -1563)"/></svg><svg viewBox="0 0 20.03 20.031" id="icon-ellipse" xmlns="http://www.w3.org/2000/svg"><path fill-rule="evenodd" d="M2.15 4.287a2.146 2.146 0 112.14-2.145 2.145 2.145 0 01-2.14 2.145zm0 7.869a2.146 2.146 0 112.14-2.147 2.146 2.146 0 01-2.14 2.147zm0 7.868a2.146 2.146 0 112.14-2.146 2.145 2.145 0 01-2.14 2.146zm7.86-15.737a2.146 2.146 0 112.15-2.145 2.143 2.143 0 01-2.15 2.145zm0 7.869a2.146 2.146 0 112.15-2.147 2.144 2.144 0 01-2.15 2.147zm0 7.868a2.146 2.146 0 112.15-2.146 2.143 2.143 0 01-2.15 2.146zm7.87-15.737a2.146 2.146 0 112.15-2.145 2.143 2.143 0 01-2.15 2.145zm0 7.869a2.146 2.146 0 112.15-2.147 2.144 2.144 0 01-2.15 2.147zm0 7.868a2.146 2.146 0 112.15-2.146 2.143 2.143 0 01-2.15 2.146z"/></svg><svg viewBox="0 0 32 32" id="icon-heart" xmlns="http://www.w3.org/2000/svg"><path d="M16 28.72a3 3 0 01-2.13-.88l-10.3-10.3a8.72 8.72 0 01-2.52-6.25 8.06 8.06 0 018.14-8A8.06 8.06 0 0115 5.68l1 1 .82-.82a8.39 8.39 0 0111-.89 8.25 8.25 0 01.81 12.36l-10.5 10.51a3 3 0 01-2.13.88zM9.15 5.28A6.12 6.12 0 004.89 7a6 6 0 00-1.84 4.33A6.72 6.72 0 005 16.13l10.3 10.3a1 1 0 001.42 0l10.51-10.52a6.25 6.25 0 001.77-4.8 6.18 6.18 0 00-2.43-4.55 6.37 6.37 0 00-8.37.71L16.71 8.8a1 1 0 01-1.42 0l-1.7-1.7a6.28 6.28 0 00-4.4-1.82z" data-name="Layer 54"/></svg><svg viewBox="0 0 19 19" id="icon-heart-blue2" xmlns="http://www.w3.org/2000/svg"><path fill="none" d="M-1-1h21v21H-1z"/><g><path d="M9.5 17.05a1.772 1.772 0 01-1.266-.519l-6.113-6.117a5.169 5.169 0 01-1.496-3.71 4.791 4.791 0 011.43-3.38 4.787 4.787 0 013.402-1.37 4.8 4.8 0 013.45 1.417l.593.594.488-.485a4.983 4.983 0 016.532-.53 4.912 4.912 0 011.898 3.562A4.906 4.906 0 0117 10.289l-6.234 6.242a1.772 1.772 0 01-1.266.52zM5.434 3.138a3.622 3.622 0 00-2.532 1.02 3.547 3.547 0 00-1.09 2.57A3.994 3.994 0 002.97 9.578l6.117 6.113c.11.114.262.176.422.176a.582.582 0 00.418-.176l6.242-6.246a3.693 3.693 0 001.05-2.847 3.664 3.664 0 00-1.44-2.703 3.788 3.788 0 00-4.973.421l-.883.91a.607.607 0 01-.422.176.607.607 0 01-.422-.175L8.07 4.215a3.726 3.726 0 00-2.613-1.078h-.023zm0 0"/></g></svg><svg viewBox="0 0 19 19" id="icon-heart1" xmlns="http://www.w3.org/2000/svg"><path d="M9.5 17.05a1.772 1.772 0 01-1.266-.519l-6.113-6.117a5.169 5.169 0 01-1.496-3.71 4.791 4.791 0 011.43-3.38 4.787 4.787 0 013.402-1.37 4.8 4.8 0 013.45 1.417l.593.594.488-.485a4.983 4.983 0 016.532-.53 4.912 4.912 0 011.898 3.562A4.906 4.906 0 0117 10.289l-6.234 6.242a1.772 1.772 0 01-1.266.52zM5.434 3.138a3.622 3.622 0 00-2.532 1.02 3.547 3.547 0 00-1.09 2.57A3.994 3.994 0 002.97 9.578l6.117 6.113c.11.114.262.176.422.176a.582.582 0 00.418-.176l6.242-6.246a3.693 3.693 0 001.05-2.847 3.664 3.664 0 00-1.44-2.703 3.788 3.788 0 00-4.973.421l-.883.91a.607.607 0 01-.422.176.607.607 0 01-.422-.175L8.07 4.215a3.726 3.726 0 00-2.613-1.078zm0 0"/></svg><svg viewBox="0 0 15.28 15.281" id="icon-search" xmlns="http://www.w3.org/2000/svg"><path fill-rule="evenodd" d="M2.98 6.076a.617.617 0 01.75.485 2.583 2.583 0 00.78 1.489A3.036 3.036 0 006 8.827a.636.636 0 01.49.743.649.649 0 01-.72.515 4.21 4.21 0 01-2.14-1.13A4.164 4.164 0 012.5 6.819a.6.6 0 01.48-.743zM6.26 0a6.267 6.267 0 016.28 6.257 6.136 6.136 0 01-.57 2.6l2.34 2.036c1.7 1.746.74 3.266.29 3.717-.42.454-1.99 1.414-3.73-.292l-2.06-2.35A6.261 6.261 0 116.26 0zm5.55 13.517a1.352 1.352 0 001.88.226 1.313 1.313 0 00-.23-1.874l-2.16-1.88a6.236 6.236 0 01-1.37 1.34zm-5.55-2.312a4.948 4.948 0 10-4.97-4.948A4.963 4.963 0 006.26 11.2z"/></svg><svg viewBox="0 0 20 20" id="icon-search-blue" xmlns="http://www.w3.org/2000/svg"><defs><style>.icls-1{fill-rule:evenodd}</style></defs><path id="iForma_1" data-name="Forma 1" class="icls-1" d="M759.45 1579.8l-4.588-4.59a8.827 8.827 0 01-2.651 2.65l4.588 4.59a1.874 1.874 0 002.651-2.65zm-4.45-9.3a7.5 7.5 0 10-7.5 7.5 7.5 7.5 0 007.5-7.5zm-7.5 5.62a5.625 5.625 0 115.625-5.62 5.628 5.628 0 01-5.625 5.62zm-4.375-5.62h1.25a3.135 3.135 0 013.125-3.13v-1.25a4.386 4.386 0 00-4.375 4.38z" transform="translate(-740 -1563)"/></svg><svg viewBox="0 0 15.28 15.281" id="icon-search-white" xmlns="http://www.w3.org/2000/svg"><path fill="none" d="M-1-1h582v402H-1z"/><g><path d="M2.98 6.076a.617.617 0 01.75.485 2.583 2.583 0 00.78 1.489A3.036 3.036 0 006 8.827a.636.636 0 01.49.743.649.649 0 01-.72.515 4.21 4.21 0 01-2.14-1.13A4.164 4.164 0 012.5 6.819a.6.6 0 01.48-.743zM6.26 0a6.267 6.267 0 016.28 6.257 6.136 6.136 0 01-.57 2.6l2.34 2.036c1.7 1.746.74 3.266.29 3.717-.42.454-1.99 1.414-3.73-.292l-2.06-2.35A6.261 6.261 0 116.26 0zm5.55 13.517a1.352 1.352 0 001.88.226 1.313 1.313 0 00-.23-1.874l-2.16-1.88a6.236 6.236 0 01-1.37 1.34l1.88 2.188zm-5.55-2.312a4.948 4.948 0 10-4.97-4.948A4.963 4.963 0 006.26 11.2v.005z" fill-rule="evenodd"/></g></svg><svg viewBox="0 0 8 8" id="insights-men" xmlns="http://www.w3.org/2000/svg"><path d="M4 4.5a2.25 2.25 0 10-.001-4.501A2.25 2.25 0 004 4.5zM6 5h-.86a2.72 2.72 0 01-2.28 0H2C.895 5 0 5.895 0 7v.25c0 .414.336.75.75.75h6.5A.75.75 0 008 7.25V7c0-1.105-.895-2-2-2zm0 0"/></svg><svg viewBox="0 0 8 9" id="insights-time" xmlns="http://www.w3.org/2000/svg"><path d="M7.785 2.813H.215A.213.213 0 010 2.602v-.633a.85.85 0 01.855-.844h.86V.211c0-.117.097-.211.215-.211h.715a.21.21 0 01.21.21v.915h2.29V.211A.21.21 0 015.355 0h.715c.117 0 .215.094.215.21v.915h.86A.85.85 0 018 1.969v.633c0 .117-.098.21-.215.21zm-7.57.562h7.57c.117 0 .215.094.215.21v4.571A.85.85 0 017.145 9H.855A.85.85 0 010 8.156v-4.57c0-.117.098-.211.215-.211zm4.594 2.813l.859-.844a.215.215 0 000-.301l-.504-.496a.22.22 0 00-.305 0L4 5.39l-.86-.844a.22.22 0 00-.304 0l-.504.496a.215.215 0 000 .3l.86.845-.86.843a.215.215 0 000 .301l.504.496a.22.22 0 00.305 0L4 6.984l.86.844a.22.22 0 00.304 0l.504-.496a.215.215 0 000-.3zm0 0"/></svg><svg viewBox="0 0 1 32" id="rectangle" xmlns="http://www.w3.org/2000/svg"><defs><style>.mcls-1{opacity:.4}</style></defs><path class="mcls-1" d="M0 0h1v32H0z"/></svg><svg id="video-play" data-name="Группа 1" viewBox="0 0 98 98" xmlns="http://www.w3.org/2000/svg"><defs><style>.ncls-2{fill-rule:evenodd}</style></defs><circle class="ncls-1" cx="49" cy="49" r="49"/><path id="nForm_24" data-name="Form 24" class="ncls-2" d="M970.684 3900.74l-16.044 9.8a3.228 3.228 0 01-3.062.14 2.685 2.685 0 01-1.579-2.39v-19.59a2.685 2.685 0 011.579-2.39 3.258 3.258 0 013.062.15l16.044 9.79a2.666 2.666 0 011.316 2.25 2.638 2.638 0 01-1.316 2.24z" transform="translate(-911 -3850)"/></svg></svg>